<svg width="1920" height="1080" viewBox="0 0 1920 1080" fill="none" xmlns="http://www.w3.org/2000/svg">
  <!-- Background gradient -->
  <defs>
    <linearGradient id="bg" x1="0%" y1="0%" x2="100%" y2="100%">
      <stop offset="0%" style="stop-color:#001F3F;stop-opacity:1" />
      <stop offset="100%" style="stop-color:#3B82F6;stop-opacity:1" />
    </linearGradient>
    <linearGradient id="sky" x1="0%" y1="0%" x2="0%" y2="100%">
      <stop offset="0%" style="stop-color:#87CEEB;stop-opacity:1" />
      <stop offset="100%" style="stop-color:#4682B4;stop-opacity:1" />
    </linearGradient>
  </defs>
  
  <!-- Sky background -->
  <rect width="1920" height="1080" fill="url(#sky)"/>
  
  <!-- Clouds -->
  <ellipse cx="300" cy="150" rx="80" ry="40" fill="white" opacity="0.8"/>
  <ellipse cx="350" cy="150" rx="60" ry="30" fill="white" opacity="0.8"/>
  <ellipse cx="400" cy="150" rx="70" ry="35" fill="white" opacity="0.8"/>
  
  <ellipse cx="1200" cy="200" rx="90" ry="45" fill="white" opacity="0.7"/>
  <ellipse cx="1250" cy="200" rx="70" ry="35" fill="white" opacity="0.7"/>
  <ellipse cx="1300" cy="200" rx="80" ry="40" fill="white" opacity="0.7"/>
  
  <ellipse cx="1600" cy="100" rx="60" ry="30" fill="white" opacity="0.6"/>
  <ellipse cx="1650" cy="100" rx="50" ry="25" fill="white" opacity="0.6"/>
  
  <!-- Ground/buildings -->
  <rect x="0" y="700" width="1920" height="380" fill="#2F4F2F"/>
  
  <!-- Buildings -->
  <rect x="100" y="500" width="150" height="200" fill="#708090"/>
  <rect x="300" y="400" width="200" height="300" fill="#696969"/>
  <rect x="600" y="450" width="180" height="250" fill="#778899"/>
  <rect x="900" y="350" width="220" height="350" fill="#808080"/>
  <rect x="1300" y="480" width="160" height="220" fill="#708090"/>
  <rect x="1600" y="420" width="190" height="280" fill="#696969"/>
  
  <!-- Building details -->
  <rect x="120" y="520" width="20" height="20" fill="#FFD700"/>
  <rect x="160" y="520" width="20" height="20" fill="#FFD700"/>
  <rect x="200" y="520" width="20" height="20" fill="#FFD700"/>
  
  <rect x="320" y="420" width="25" height="25" fill="#FFD700"/>
  <rect x="360" y="420" width="25" height="25" fill="#FFD700"/>
  <rect x="400" y="420" width="25" height="25" fill="#FFD700"/>
  <rect x="440" y="420" width="25" height="25" fill="#FFD700"/>
  
  <!-- Drone -->
  <g transform="translate(960, 300)">
    <!-- Main body -->
    <ellipse cx="0" cy="0" rx="15" ry="8" fill="#333"/>
    
    <!-- Arms -->
    <rect x="-25" y="-5" width="50" height="3" fill="#333"/>
    <rect x="-3" y="-25" width="6" height="50" fill="#333"/>
    
    <!-- Propellers -->
    <ellipse cx="-30" cy="0" rx="12" ry="2" fill="#666" opacity="0.8"/>
    <ellipse cx="30" cy="0" rx="12" ry="2" fill="#666" opacity="0.8"/>
    <ellipse cx="0" cy="-30" rx="2" ry="12" fill="#666" opacity="0.8"/>
    <ellipse cx="0" cy="30" rx="2" ry="12" fill="#666" opacity="0.8"/>
    
    <!-- Camera -->
    <rect x="8" y="-3" width="8" height="6" fill="#222"/>
    <circle cx="12" cy="0" r="3" fill="#000"/>
  </g>
  
  <!-- Trees -->
  <circle cx="200" cy="680" r="40" fill="#228B22"/>
  <circle cx="800" cy="720" r="35" fill="#228B22"/>
  <circle cx="1400" cy="700" r="45" fill="#228B22"/>
  
  <!-- Roads -->
  <rect x="0" y="750" width="1920" height="30" fill="#696969"/>
  <rect x="0" y="780" width="1920" height="4" fill="#FFD700"/>
  <rect x="0" y="784" width="1920" height="4" fill="#FFD700"/>
</svg>



