<svg width="112" height="112" viewBox="0 0 112 112" fill="none" xmlns="http://www.w3.org/2000/svg">
  <!-- QR Code pattern (simplified) -->
  <rect width="112" height="112" fill="white"/>
  <rect x="8" y="8" width="8" height="8" fill="black"/>
  <rect x="24" y="8" width="8" height="8" fill="black"/>
  <rect x="40" y="8" width="8" height="8" fill="black"/>
  <rect x="56" y="8" width="8" height="8" fill="black"/>
  <rect x="72" y="8" width="8" height="8" fill="black"/>
  <rect x="88" y="8" width="8" height="8" fill="black"/>
  <rect x="104" y="8" width="8" height="8" fill="black"/>
  
  <rect x="8" y="24" width="8" height="8" fill="black"/>
  <rect x="32" y="24" width="8" height="8" fill="black"/>
  <rect x="56" y="24" width="8" height="8" fill="black"/>
  <rect x="80" y="24" width="8" height="8" fill="black"/>
  <rect x="104" y="24" width="8" height="8" fill="black"/>
  
  <rect x="8" y="40" width="8" height="8" fill="black"/>
  <rect x="24" y="40" width="8" height="8" fill="black"/>
  <rect x="40" y="40" width="8" height="8" fill="black"/>
  <rect x="56" y="40" width="8" height="8" fill="black"/>
  <rect x="72" y="40" width="8" height="8" fill="black"/>
  <rect x="88" y="40" width="8" height="8" fill="black"/>
  <rect x="104" y="40" width="8" height="8" fill="black"/>
  
  <!-- Center square (logo area) -->
  <rect x="48" y="48" width="16" height="16" fill="white"/>
  <rect x="50" y="50" width="12" height="12" fill="#3B82F6"/>
  <text x="56" y="60" text-anchor="middle" fill="white" font-family="Arial" font-size="8" font-weight="bold">HD</text>
  
  <!-- More QR pattern -->
  <rect x="8" y="64" width="8" height="8" fill="black"/>
  <rect x="32" y="64" width="8" height="8" fill="black"/>
  <rect x="56" y="64" width="8" height="8" fill="black"/>
  <rect x="80" y="64" width="8" height="8" fill="black"/>
  <rect x="104" y="64" width="8" height="8" fill="black"/>
  
  <rect x="8" y="80" width="8" height="8" fill="black"/>
  <rect x="24" y="80" width="8" height="8" fill="black"/>
  <rect x="40" y="80" width="8" height="8" fill="black"/>
  <rect x="56" y="80" width="8" height="8" fill="black"/>
  <rect x="72" y="80" width="8" height="8" fill="black"/>
  <rect x="88" y="80" width="8" height="8" fill="black"/>
  <rect x="104" y="80" width="8" height="8" fill="black"/>
  
  <rect x="8" y="96" width="8" height="8" fill="black"/>
  <rect x="32" y="96" width="8" height="8" fill="black"/>
  <rect x="56" y="96" width="8" height="8" fill="black"/>
  <rect x="80" y="96" width="8" height="8" fill="black"/>
  <rect x="104" y="96" width="8" height="8" fill="black"/>
</svg>



